ply
format ascii 1.0
comment Exported by Aspose.3D 23.2
element vertex 446
property float x
property float y
property float z
property float nx
property float ny
property float nz
element face 456
property list uchar int vertex_index
end_header
0 0 0 0 -1 0
0 0.008628 0.032649 0 0.6789153266865019 -0.7342165751262774
0 0.008628 0 0 1 0
-0.00845 0.008628 0.031536 0.19000286431476948 0.6789102346489315 -0.7092106914317607
-0.016324 0.008628 0.028275 0.3670933134561925 0.6788876341743643 -0.6358884173979648
-0.023086 0.008628 0.023086 0.519188969947499 0.678885577229116 -0.519188969947499
-0.028275 0.008628 0.016324 0.6358884173979648 0.6788876341743643 -0.3670933134561925
-0.031536 0.008628 0.00845 0.7092106914317607 0.6789102346489315 -0.19000286431476948
-0.032649 0.008628 0 0.7342165751262774 0.6789153266865019 0
-0.031536 0.008628 -0.00845 0.7092106914317607 0.6789102346489315 0.19000286431476948
-0.028275 0.008628 -0.016324 0.6358884173979648 0.6788876341743643 0.3670933134561925
-0.023086 0.008628 -0.023086 0.519188969947499 0.678885577229116 0.519188969947499
-0.016324 0.008628 -0.028275 0.3670933134561925 0.6788876341743643 0.6358884173979648
-0.00845 0.008628 -0.031536 0.19000286431476948 0.6789102346489315 0.7092106914317607
0 0.008628 -0.032649 0 0.6789153266865019 0.7342165751262774
0.00845 0.008628 -0.031536 -0.19000286431476948 0.6789102346489315 0.7092106914317607
0.016324 0.008628 -0.028275 -0.3670933134561925 0.6788876341743643 0.6358884173979648
0.023086 0.008628 -0.023086 -0.519188969947499 0.678885577229116 0.519188969947499
0.028275 0.008628 -0.016324 -0.6358884173979648 0.6788876341743643 0.3670933134561925
0.031536 0.008628 -0.00845 -0.7092106914317607 0.6789102346489315 0.19000286431476948
0.032649 0.008628 0 -0.7342165751262774 0.6789153266865019 0
0.031536 0.008628 0.00845 -0.7092106914317607 0.6789102346489315 -0.19000286431476948
0.028275 0.008628 0.016324 -0.6358884173979648 0.6788876341743643 -0.3670933134561925
0.023086 0.008628 0.023086 -0.519188969947499 0.678885577229116 -0.519188969947499
0.016324 0.008628 0.028275 -0.3670933134561925 0.6788876341743643 -0.6358884173979648
0.00845 0.008628 0.031536 -0.19000286431476948 0.6789102346489315 -0.7092106914317607
0 0.097171 0.041 0 0.19350005224502118 0.9811002648971073
0 0.1 0.038146 0 0.9779149573236593 0.2090031967283411
0 0.099171 0.040164 0 0.6936820408044424 0.7202813521571859
-0.009873 0.1 0.036846 -0.05410057265759239 0.977910351235852 0.2019021371454326
-0.010612 0.097171 0.039603 -0.2538945730615006 0.19349586407010777 0.9476797435619697
-0.010395 0.099171 0.038796 -0.18640343544697324 0.6937127852444491 0.6957128221054681
-0.019073 0.1 0.033036 -0.1045015853010736 0.9779148350805731 0.18100274583248158
-0.0205 0.097171 0.035507 -0.49053613912860344 0.19351425672045824 0.8496625969493609
-0.020082 0.099171 0.034783 -0.3600967339374347 0.6936937082265994 0.6237943422109741
-0.026973 0.1 0.026973 -0.14780161917560714 0.9779107130705429 0.14780161917560714
-0.028991 0.097171 0.028991 -0.693741060279765 0.19351145331430666 0.693741060279765
-0.0284 0.099171 0.0284 -0.5093018665947616 0.6937025424244769 0.5093018665947616
-0.033036 0.1 0.019073 -0.18100274583248158 0.9779148350805731 0.1045015853010736
-0.035507 0.097171 0.0205 -0.8496625969493609 0.19351425672045824 0.49053613912860344
-0.034783 0.099171 0.020082 -0.6237943422109741 0.6936937082265994 0.3600967339374347
-0.036846 0.1 0.009873 -0.2019021371454326 0.977910351235852 0.05410057265759239
-0.039603 0.097171 0.010612 -0.9476797435619697 0.19349586407010777 0.2538945730615006
-0.038796 0.099171 0.010395 -0.6957128221054681 0.6937127852444491 0.18640343544697324
-0.038146 0.1 0 -0.2090031967283411 0.9779149573236593 0
-0.041 0.097171 0 -0.9811002648971073 0.19350005224502118 0
-0.040164 0.099171 0 -0.7202813521571859 0.6936820408044424 0
-0.036846 0.1 -0.009873 -0.2019021371454326 0.977910351235852 -0.05410057265759239
-0.039603 0.097171 -0.010612 -0.9476797435619697 0.19349586407010777 -0.2538945730615006
-0.038796 0.099171 -0.010395 -0.6957128221054681 0.6937127852444491 -0.18640343544697324
-0.033036 0.1 -0.019073 -0.18100274583248158 0.9779148350805731 -0.1045015853010736
-0.035507 0.097171 -0.0205 -0.8496625969493609 0.19351425672045824 -0.49053613912860344
-0.034783 0.099171 -0.020082 -0.6237943422109741 0.6936937082265994 -0.3600967339374347
-0.026974 0.1 -0.026973 -0.14780161917560714 0.9779107130705429 -0.14780161917560714
-0.028991 0.097171 -0.028991 -0.693741060279765 0.19351145331430666 -0.693741060279765
-0.0284 0.099171 -0.0284 -0.5093018665947616 0.6937025424244769 -0.5093018665947616
-0.019073 0.1 -0.033036 -0.1045015853010736 0.9779148350805731 -0.18100274583248158
-0.0205 0.097171 -0.035507 -0.49053613912860344 0.19351425672045824 -0.8496625969493609
-0.020082 0.099171 -0.034783 -0.3600967339374347 0.6936937082265994 -0.6237943422109741
-0.009873 0.1 -0.036846 -0.05410057265759239 0.977910351235852 -0.2019021371454326
-0.010612 0.097171 -0.039603 -0.2538945730615006 0.19349586407010777 -0.9476797435619697
-0.010395 0.099171 -0.038796 -0.18640343544697324 0.6937127852444491 -0.6957128221054681
0 0.1 -0.038146 0 0.9779149573236593 -0.2090031967283411
0 0.097171 -0.041 0 0.19350005224502118 -0.9811002648971073
0 0.099171 -0.040164 0 0.6936820408044424 -0.7202813521571859
0.009873 0.1 -0.036846 0.05410057265759239 0.977910351235852 -0.2019021371454326
0.010612 0.097171 -0.039603 0.2538945730615006 0.19349586407010777 -0.9476797435619697
0.010395 0.099171 -0.038796 0.18640343544697324 0.6937127852444491 -0.6957128221054681
0.019073 0.1 -0.033036 0.1045015853010736 0.9779148350805731 -0.18100274583248158
0.0205 0.097171 -0.035507 0.49053613912860344 0.19351425672045824 -0.8496625969493609
0.020082 0.099171 -0.034783 0.3600967339374347 0.6936937082265994 -0.6237943422109741
0.026973 0.1 -0.026974 0.14780161917560714 0.9779107130705429 -0.14780161917560714
0.028991 0.097171 -0.028991 0.693741060279765 0.19351145331430666 -0.693741060279765
0.0284 0.099171 -0.0284 0.5093018665947616 0.6937025424244769 -0.5093018665947616
0.033036 0.1 -0.019073 0.18100274583248158 0.9779148350805731 -0.1045015853010736
0.035507 0.097171 -0.0205 0.8496625969493609 0.19351425672045824 -0.49053613912860344
0.034783 0.099171 -0.020082 0.6237943422109741 0.6936937082265994 -0.3600967339374347
0.036846 0.1 -0.009873 0.2019021371454326 0.977910351235852 -0.05410057265759239
0.039603 0.097171 -0.010612 0.9476797435619697 0.19349586407010777 -0.2538945730615006
0.038796 0.099171 -0.010395 0.6957128221054681 0.6937127852444491 -0.18640343544697324
0.038146 0.1 0 0.2090031967283411 0.9779149573236593 0
0.041 0.097171 0 0.9811002648971073 0.19350005224502118 0
0.040164 0.099171 0 0.7202813521571859 0.6936820408044424 0
0.036846 0.1 0.009873 0.2019021371454326 0.977910351235852 0.05410057265759239
0.039603 0.097171 0.010612 0.9476797435619697 0.19349586407010777 0.2538945730615006
0.038796 0.099171 0.010395 0.6957128221054681 0.6937127852444491 0.18640343544697324
0.033036 0.1 0.019073 0.18100274583248158 0.9779148350805731 0.1045015853010736
0.035507 0.097171 0.0205 0.8496625969493609 0.19351425672045824 0.49053613912860344
0.034783 0.099171 0.020082 0.6237943422109741 0.6936937082265994 0.3600967339374347
0.026974 0.1 0.026973 0.14780161917560714 0.9779107130705429 0.14780161917560714
0.028991 0.097171 0.028991 0.693741060279765 0.19351145331430666 0.693741060279765
0.0284 0.099171 0.0284 0.5093018665947616 0.6937025424244769 0.5093018665947616
0.019073 0.1 0.033036 0.1045015853010736 0.9779148350805731 0.18100274583248158
0.0205 0.097171 0.035507 0.49053613912860344 0.19351425672045824 0.8496625969493609
0.020082 0.099171 0.034783 0.3600967339374347 0.6936937082265994 0.6237943422109741
0.009873 0.1 0.036846 0.05410057265759239 0.977910351235852 0.2019021371454326
0.010612 0.097171 0.039603 0.2538945730615006 0.19349586407010777 0.9476797435619697
0.010395 0.099171 0.038796 0.18640343544697324 0.6937127852444491 0.6957128221054681
0 0.1 0.035502 0 0.9840295213284663 -0.17800534024031198
0 0.097171 0.032649 0 0.19980718519557175 -0.9798352355086145
0 0.099171 0.033484 0 0.7255110677557586 -0.6882104987312377
-0.00845 0.097171 0.031536 0.25361192511308484 0.1998093952586528 -0.9464445028668119
-0.009189 0.1 0.034293 0.04610159468174054 0.9840340383260888 -0.1719059463295271
-0.008666 0.099171 0.032344 0.17809742651078023 0.7254895167522238 -0.6647903938482127
-0.016324 0.097171 0.028275 0.4899307931180516 0.19981255861397573 -0.8485533332530452
-0.017751 0.1 0.030746 0.08900339064875137 0.98403748762215 -0.15410587077497287
-0.016742 0.099171 0.028998 0.3441049792350746 0.7255104982128643 -0.596008624307191
-0.023086 0.097171 0.023086 0.6928472122176156 0.19981361576368303 -0.6928472122176156
-0.025104 0.1 0.025104 0.12580583249359473 0.9840456214125375 -0.12580583249359473
-0.023677 0.099171 0.023677 0.4866220517779258 0.7255328782673349 -0.4866220517779258
-0.028275 0.097171 0.016324 0.8485533332530452 0.19981255861397573 -0.4899307931180516
-0.030746 0.1 0.017751 0.15410587077497287 0.98403748762215 -0.08900339064875137
-0.028998 0.099171 0.016742 0.596008624307191 0.7255104982128643 -0.3441049792350746
-0.031536 0.097171 0.00845 0.9464445028668119 0.1998093952586528 -0.25361192511308484
-0.034293 0.1 0.009189 0.1719059463295271 0.9840340383260888 -0.04610159468174054
-0.032344 0.099171 0.008666 0.6647903938482127 0.7254895167522238 -0.17809742651078023
-0.032649 0.097171 0 0.9798352355086145 0.19980718519557175 0
-0.035502 0.1 0 0.17800534024031198 0.9840295213284663 0
-0.033484 0.099171 0 0.6882104987312377 0.7255110677557586 0
-0.031536 0.097171 -0.00845 0.9464445028668119 0.1998093952586528 0.25361192511308484
-0.034293 0.1 -0.009189 0.1719059463295271 0.9840340383260888 0.04610159468174054
-0.032344 0.099171 -0.008666 0.6647903938482127 0.7254895167522238 0.17809742651078023
-0.028275 0.097171 -0.016324 0.8485533332530452 0.19981255861397573 0.4899307931180516
-0.030746 0.1 -0.017751 0.15410587077497287 0.98403748762215 0.08900339064875137
-0.028998 0.099171 -0.016742 0.596008624307191 0.7255104982128643 0.3441049792350746
-0.023086 0.097171 -0.023086 0.6928472122176156 0.19981361576368303 0.6928472122176156
-0.025104 0.1 -0.025104 0.12580583249359473 0.9840456214125375 0.12580583249359473
-0.023677 0.099171 -0.023677 0.4866220517779258 0.7255328782673349 0.4866220517779258
-0.016324 0.097171 -0.028275 0.4899307931180516 0.19981255861397573 0.8485533332530452
-0.017751 0.1 -0.030746 0.08900339064875137 0.98403748762215 0.15410587077497287
-0.016742 0.099171 -0.028998 0.3441049792350746 0.7255104982128643 0.596008624307191
-0.00845 0.097171 -0.031536 0.25361192511308484 0.1998093952586528 0.9464445028668119
-0.009189 0.1 -0.034293 0.04610159468174054 0.9840340383260888 0.1719059463295271
-0.008666 0.099171 -0.032343 0.17809742651078023 0.7254895167522238 0.6647903938482127
0 0.097171 -0.032649 0 0.19980718519557175 0.9798352355086145
0 0.1 -0.035502 0 0.9840295213284663 0.17800534024031198
0 0.099171 -0.033484 0 0.7255110677557586 0.6882104987312377
0.00845 0.097171 -0.031536 -0.25361192511308484 0.1998093952586528 0.9464445028668119
0.009189 0.1 -0.034293 -0.04610159468174054 0.9840340383260888 0.1719059463295271
0.008666 0.099171 -0.032344 -0.17809742651078023 0.7254895167522238 0.6647903938482127
0.016324 0.097171 -0.028275 -0.4899307931180516 0.19981255861397573 0.8485533332530452
0.017751 0.1 -0.030746 -0.08900339064875137 0.98403748762215 0.15410587077497287
0.016742 0.099171 -0.028998 -0.3441049792350746 0.7255104982128643 0.596008624307191
0.023086 0.097171 -0.023086 -0.6928472122176156 0.19981361576368303 0.6928472122176156
0.025104 0.1 -0.025104 -0.12580583249359473 0.9840456214125375 0.12580583249359473
0.023677 0.099171 -0.023677 -0.4866220517779258 0.7255328782673349 0.4866220517779258
0.028275 0.097171 -0.016324 -0.8485533332530452 0.19981255861397573 0.4899307931180516
0.030746 0.1 -0.017751 -0.15410587077497287 0.98403748762215 0.08900339064875137
0.028998 0.099171 -0.016742 -0.596008624307191 0.7255104982128643 0.3441049792350746
0.031536 0.097171 -0.00845 -0.9464445028668119 0.1998093952586528 0.25361192511308484
0.034293 0.1 -0.009189 -0.1719059463295271 0.9840340383260888 0.04610159468174054
0.032343 0.099171 -0.008666 -0.6647903938482127 0.7254895167522238 0.17809742651078023
0.032649 0.097171 0 -0.9798352355086145 0.19980718519557175 0
0.035502 0.1 0 -0.17800534024031198 0.9840295213284663 0
0.033484 0.099171 0 -0.6882104987312377 0.7255110677557586 0
0.031536 0.097171 0.00845 -0.9464445028668119 0.1998093952586528 -0.25361192511308484
0.034293 0.1 0.009189 -0.1719059463295271 0.9840340383260888 -0.04610159468174054
0.032344 0.099171 0.008666 -0.6647903938482127 0.7254895167522238 -0.17809742651078023
0.028275 0.097171 0.016324 -0.8485533332530452 0.19981255861397573 -0.4899307931180516
0.030746 0.1 0.017751 -0.15410587077497287 0.98403748762215 -0.08900339064875137
0.028998 0.099171 0.016742 -0.596008624307191 0.7255104982128643 -0.3441049792350746
0.023086 0.097171 0.023086 -0.6928472122176156 0.19981361576368303 -0.6928472122176156
0.025104 0.1 0.025104 -0.12580583249359473 0.9840456214125375 -0.12580583249359473
0.023677 0.099171 0.023677 -0.4866220517779258 0.7255328782673349 -0.4866220517779258
0.016324 0.097171 0.028275 -0.4899307931180516 0.19981255861397573 -0.8485533332530452
0.017751 0.1 0.030746 -0.08900339064875137 0.98403748762215 -0.15410587077497287
0.016742 0.099171 0.028998 -0.3441049792350746 0.7255104982128643 -0.596008624307191
0.00845 0.097171 0.031536 -0.25361192511308484 0.1998093952586528 -0.9464445028668119
0.009189 0.1 0.034293 -0.04610159468174054 0.9840340383260888 -0.1719059463295271
0.008666 0.099171 0.032344 -0.17809742651078023 0.7254895167522238 -0.6647903938482127
0 0 0.03946 0 -0.9779149573236593 0.2090031967283411
0 0.001527 0.041 0 -0.19350005224502118 0.9811002648971073
0 0.000447 0.040549 0 -0.6936820408044424 0.7202813521571859
-0.010612 0.001527 0.039603 -0.2538945730615006 -0.19349586407010777 0.9476797435619697
-0.010213 0 0.038116 -0.05410057265759239 -0.977910351235852 0.2019021371454326
-0.010495 0.000447 0.039167 -0.18640343544697324 -0.6937127852444491 0.6957128221054681
-0.0205 0.001527 0.035507 -0.49053613912860344 -0.19351425672045824 0.8496625969493609
-0.01973 0 0.034174 -0.1045015853010736 -0.9779148350805731 0.18100274583248158
-0.020275 0.000447 0.035116 -0.3600967339374347 -0.6936937082265994 0.6237943422109741
-0.028991 0.001527 0.028991 -0.693741060279765 -0.19351145331430666 0.693741060279765
-0.027903 0 0.027903 -0.14780161917560714 -0.9779107130705429 0.14780161917560714
-0.028672 0.000447 0.028672 -0.5093018665947616 -0.6937025424244769 0.5093018665947616
-0.035507 0.001527 0.0205 -0.8496625969493609 -0.19351425672045824 0.49053613912860344
-0.034174 0 0.01973 -0.18100274583248158 -0.9779148350805731 0.1045015853010736
-0.035116 0.000447 0.020275 -0.6237943422109741 -0.6936937082265994 0.3600967339374347
-0.039603 0.001527 0.010612 -0.9476797435619697 -0.19349586407010777 0.2538945730615006
-0.038116 0 0.010213 -0.2019021371454326 -0.977910351235852 0.05410057265759239
-0.039167 0.000447 0.010495 -0.6957128221054681 -0.6937127852444491 0.18640343544697324
-0.041 0.001527 0 -0.9811002648971073 -0.19350005224502118 0
-0.03946 0 0 -0.2090031967283411 -0.9779149573236593 0
-0.040549 0.000447 0 -0.7202813521571859 -0.6936820408044424 0
-0.039603 0.001527 -0.010612 -0.9476797435619697 -0.19349586407010777 -0.2538945730615006
-0.038116 0 -0.010213 -0.2019021371454326 -0.977910351235852 -0.05410057265759239
-0.039167 0.000447 -0.010495 -0.6957128221054681 -0.6937127852444491 -0.18640343544697324
-0.035507 0.001527 -0.0205 -0.8496625969493609 -0.19351425672045824 -0.49053613912860344
-0.034174 0 -0.01973 -0.18100274583248158 -0.9779148350805731 -0.1045015853010736
-0.035116 0.000447 -0.020275 -0.6237943422109741 -0.6936937082265994 -0.3600967339374347
-0.028991 0.001527 -0.028991 -0.693741060279765 -0.19351145331430666 -0.693741060279765
-0.027903 0 -0.027903 -0.14780161917560714 -0.9779107130705429 -0.14780161917560714
-0.028672 0.000447 -0.028672 -0.5093018665947616 -0.6937025424244769 -0.5093018665947616
-0.0205 0.001527 -0.035507 -0.49053613912860344 -0.19351425672045824 -0.8496625969493609
-0.01973 0 -0.034174 -0.1045015853010736 -0.9779148350805731 -0.18100274583248158
-0.020275 0.000447 -0.035116 -0.3600967339374347 -0.6936937082265994 -0.6237943422109741
-0.010612 0.001527 -0.039603 -0.2538945730615006 -0.19349586407010777 -0.9476797435619697
-0.010213 0 -0.038116 -0.05410057265759239 -0.977910351235852 -0.2019021371454326
-0.010495 0.000447 -0.039167 -0.18640343544697324 -0.6937127852444491 -0.6957128221054681
0 0.001527 -0.041 0 -0.19350005224502118 -0.9811002648971073
0 0 -0.03946 0 -0.9779149573236593 -0.2090031967283411
0 0.000447 -0.040549 0 -0.6936820408044424 -0.7202813521571859
0.010612 0.001527 -0.039603 0.2538945730615006 -0.19349586407010777 -0.9476797435619697
0.010213 0 -0.038116 0.05410057265759239 -0.977910351235852 -0.2019021371454326
0.010495 0.000447 -0.039167 0.18640343544697324 -0.6937127852444491 -0.6957128221054681
0.0205 0.001527 -0.035507 0.49053613912860344 -0.19351425672045824 -0.8496625969493609
0.01973 0 -0.034174 0.1045015853010736 -0.9779148350805731 -0.18100274583248158
0.020274 0.000447 -0.035116 0.3600967339374347 -0.6936937082265994 -0.6237943422109741
0.028991 0.001527 -0.028991 0.693741060279765 -0.19351145331430666 -0.693741060279765
0.027903 0 -0.027903 0.14780161917560714 -0.9779107130705429 -0.14780161917560714
0.028672 0.000447 -0.028672 0.5093018665947616 -0.6937025424244769 -0.5093018665947616
0.035507 0.001527 -0.0205 0.8496625969493609 -0.19351425672045824 -0.49053613912860344
0.034174 0 -0.01973 0.18100274583248158 -0.9779148350805731 -0.1045015853010736
0.035116 0.000447 -0.020275 0.6237943422109741 -0.6936937082265994 -0.3600967339374347
0.039603 0.001527 -0.010612 0.9476797435619697 -0.19349586407010777 -0.2538945730615006
0.038116 0 -0.010213 0.2019021371454326 -0.977910351235852 -0.05410057265759239
0.039167 0.000447 -0.010495 0.6957128221054681 -0.6937127852444491 -0.18640343544697324
0.041 0.001527 0 0.9811002648971073 -0.19350005224502118 0
0.03946 0 0 0.2090031967283411 -0.9779149573236593 0
0.040549 0.000447 0 0.7202813521571859 -0.6936820408044424 0
0.039603 0.001527 0.010612 0.9476797435619697 -0.19349586407010777 0.2538945730615006
0.038116 0 0.010213 0.2019021371454326 -0.977910351235852 0.05410057265759239
0.039167 0.000447 0.010495 0.6957128221054681 -0.6937127852444491 0.18640343544697324
0.035507 0.001527 0.0205 0.8496625969493609 -0.19351425672045824 0.49053613912860344
0.034174 0 0.01973 0.18100274583248158 -0.9779148350805731 0.1045015853010736
0.035116 0.000447 0.020274 0.6237943422109741 -0.6936937082265994 0.3600967339374347
0.028991 0.001527 0.028991 0.693741060279765 -0.19351145331430666 0.693741060279765
0.027903 0 0.027903 0.14780161917560714 -0.9779107130705429 0.14780161917560714
0.028673 0.000447 0.028672 0.5093018665947616 -0.6937025424244769 0.5093018665947616
0.0205 0.001527 0.035507 0.49053613912860344 -0.19351425672045824 0.8496625969493609
0.01973 0 0.034174 0.1045015853010736 -0.9779148350805731 0.18100274583248158
0.020275 0.000447 0.035116 0.3600967339374347 -0.6936937082265994 0.6237943422109741
0.010612 0.001527 0.039603 0.2538945730615006 -0.19349586407010777 0.9476797435619697
0.010213 0 0.038116 0.05410057265759239 -0.977910351235852 0.2019021371454326
0.010495 0.000447 0.039167 0.18640343544697324 -0.6937127852444491 0.6957128221054681
0.003627 0.08189 0.038527 0.14840730107676914 0.9652474865181776 -0.21511058262542482
0.005507 0.080294 0.038527 0.9872834680767394 0.15579739119452649 -0.03159947087129036
0.005059 0.081441 0.038527 0.7047999823800007 0.6925999826850007 -0.15349999616250015
-0.005507 0.080294 0.038527 -0.9872834680767394 0.15579739119452649 -0.03159947087129036
-0.003627 0.08189 0.038527 -0.14840730107676914 0.9652474865181776 -0.21511058262542482
-0.005059 0.081441 0.038527 -0.7047999823800007 0.6925999826850007 -0.15349999616250015
0.0036 0.059432 0.080633 0.14559510735862444 0.07669742262641824 0.9863668536988128
0.005474 0.059309 0.079067 0.981538329820184 0.014600570163397539 0.19070744727122677
0.005036 0.059398 0.080199 0.6697011719780765 0.05750010062526415 0.7404012957034013
0.005474 0.081965 0.056411 0.9820014828233588 0.18830028433364404 0.014700022197050277
0.0036 0.083531 0.056534 0.1468093630657038 0.9861628945442132 0.07700491114481739
0.005036 0.083097 0.0565 0.6717910047786685 0.7384901116836065 0.05769922741251738
0.005477 0.06646 0.077925 0.9809407540302068 0.05970248039107284 0.18490768214923564
0.0036 0.066958 0.079455 0.1478063935038295 0.3049131893052613 0.9408406969445385
0.005046 0.066818 0.079026 0.6652833082511913 0.22999422951717122 0.7102821792436814
0.005477 0.072697 0.074748 0.9811943875841544 0.11339935135756535 0.15619910654366584
0.0036 0.073642 0.076049 0.14850282603566944 0.5813110624547788 0.800015224434583
0.005046 0.073377 0.075684 0.6664540482826571 0.43823554015225136 0.6031489143446436
0.005477 0.077646 0.069799 0.9811943875841544 0.15619910654366584 0.11339935135756535
0.0036 0.078947 0.070744 0.14850282603566944 0.800015224434583 0.5813110624547788
0.005046 0.078582 0.070479 0.6664540482826571 0.6031489143446436 0.43823554015225136
0.005477 0.080823 0.063562 0.9809407540302068 0.18490768214923564 0.05970248039107284
0.0036 0.082353 0.064059 0.1478063935038295 0.9408406969445385 0.3049131893052613
0.005046 0.081924 0.06392 0.6652833082511913 0.7102821792436814 0.22999422951717122
-0.0036 0.083531 0.056534 -0.1468093630657038 0.9861628945442132 0.07700491114481739
-0.005474 0.081965 0.056411 -0.9819829872921166 0.18839673605482157 0.014699745329118242
-0.005036 0.083097 0.0565 -0.6717910047786685 0.7384901116836065 0.05769922741251738
-0.005474 0.059309 0.079067 -0.981538329820184 0.014600570163397539 0.19070744727122677
-0.0036 0.059432 0.080633 -0.14559510735862444 0.07669742262641824 0.9863668536988128
-0.005036 0.059398 0.080199 -0.6697011719780765 0.05750010062526415 0.7404012957034013
-0.0036 0.082353 0.064059 -0.1478063935038295 0.9408406969445385 0.3049131893052613
-0.005477 0.080823 0.063562 -0.9809407540302068 0.18490768214923564 0.05970248039107284
-0.005046 0.081924 0.06392 -0.6652833082511913 0.7102821792436814 0.22999422951717122
-0.0036 0.078947 0.070744 -0.14850282603566944 0.800015224434583 0.5813110624547788
-0.005477 0.077646 0.069799 -0.9811832562505969 0.15619733451522957 0.11349806317207782
-0.005046 0.078582 0.070479 -0.6664540482826571 0.6031489143446436 0.43823554015225136
-0.0036 0.073642 0.076049 -0.14850282603566944 0.5813110624547788 0.800015224434583
-0.005477 0.072697 0.074748 -0.9811832562505969 0.11349806317207782 0.15619733451522957
-0.005046 0.073377 0.075684 -0.6664540482826571 0.43823554015225136 0.6031489143446436
-0.0036 0.066958 0.079455 -0.1478063935038295 0.3049131893052613 0.9408406969445385
-0.005477 0.06646 0.077925 -0.9809407540302068 0.05970248039107284 0.18490768214923564
-0.005046 0.066818 0.079026 -0.6652833082511913 0.22999422951717122 0.7102821792436814
0.003631 0.018578 0.038527 0.14750360281949887 -0.9511232314686465 -0.27130662674528844
0.00551 0.020185 0.038527 0.9884193287289618 -0.14670286880264943 -0.03880075875625629
0.005068 0.019031 0.038527 0.710589923906318 -0.6767904031801238 -0.19239727182602812
-0.003631 0.018578 0.038527 -0.14750360281949887 -0.9511232314686465 -0.27130662674528844
-0.00551 0.020185 0.038527 -0.9884193287289618 -0.14670286880264943 -0.03880075875625629
-0.005068 0.019031 0.038527 -0.710589923906318 -0.6767904031801238 -0.19239727182602812
0.003599 0.05 0.080629 0.14480873222983814 0 0.9894596662168635
0.005471 0.05 0.079081 0.9826062641349008 0 0.18570118384882056
0.005023 0.05 0.080207 0.6767293267008225 0 0.7362319053009393
-0.005471 0.05 0.079081 -0.9826062641349008 0 0.18570118384882056
-0.003599 0.05 0.080629 -0.14480873222983814 0 0.9894596662168635
-0.005023 0.05 0.080207 -0.6767293267008225 0 0.7362319053009393
0.005474 0.040691 0.079067 0.981538329820184 -0.014600570163397539 0.19070744727122677
0.0036 0.040568 0.080633 0.14559510735862444 -0.07669742262641824 0.9863668536988128
0.005036 0.040602 0.080199 0.6697011719780765 -0.05750010062526415 0.7404012957034013
0.0036 0.016469 0.056534 0.1471984625200884 -0.9860897003468694 0.07719919365863333
0.005474 0.018035 0.056411 0.9821143684383162 -0.18770274611126359 0.014800216528751738
0.005036 0.016903 0.0565 0.6724595119378799 -0.7378653002792501 0.05790512454075438
0.0036 0.033042 0.079455 0.1478063935038295 -0.3049131893052613 0.9408406969445385
0.005477 0.03354 0.077925 0.9809407540302068 -0.05970248039107284 0.18490768214923564
0.005046 0.033182 0.079026 0.6652833082511913 -0.22999422951717122 0.7102821792436814
0.0036 0.026358 0.076049 0.14850282603566944 -0.5813110624547788 0.800015224434583
0.005477 0.027303 0.074748 0.9811943875841544 -0.11339935135756535 0.15619910654366584
0.005046 0.026623 0.075684 0.6664540482826571 -0.43823554015225136 0.6031489143446436
0.0036 0.021053 0.070744 0.14850282603566944 -0.800015224434583 0.5813110624547788
0.005477 0.022354 0.069799 0.9811943875841544 -0.15619910654366584 0.11339935135756535
0.005046 0.021418 0.070479 0.6664540482826571 -0.6031489143446436 0.43823554015225136
0.0036 0.017647 0.064059 0.1478063935038295 -0.9408406969445385 0.3049131893052613
0.005477 0.019177 0.063562 0.9809407540302068 -0.18490768214923564 0.05970248039107284
0.005046 0.018076 0.06392 0.6652833082511913 -0.7102821792436814 0.22999422951717122
-0.005474 0.018035 0.056411 -0.9821143684383162 -0.18770274611126359 0.014800216528751738
-0.0036 0.016469 0.056534 -0.1471984625200884 -0.9860897003468694 0.07719919365863333
-0.005036 0.016903 0.0565 -0.6724595119378799 -0.7378653002792501 0.05790512454075438
-0.0036 0.040568 0.080633 -0.14559510735862444 -0.07669742262641824 0.9863668536988128
-0.005474 0.040691 0.079067 -0.981538329820184 -0.014600570163397539 0.19070744727122677
-0.005036 0.040602 0.080199 -0.6697011719780765 -0.05750010062526415 0.7404012957034013
-0.005477 0.019177 0.063562 -0.9809407540302068 -0.18490768214923564 0.05970248039107284
-0.0036 0.017647 0.064059 -0.1478063935038295 -0.9408406969445385 0.3049131893052613
-0.005046 0.018076 0.06392 -0.6652833082511913 -0.7102821792436814 0.22999422951717122
-0.005477 0.022354 0.069799 -0.9811832562505969 -0.15619733451522957 0.11349806317207782
-0.0036 0.021053 0.070744 -0.14850282603566944 -0.800015224434583 0.5813110624547788
-0.005046 0.021418 0.070479 -0.6664540482826571 -0.6031489143446436 0.43823554015225136
-0.005477 0.027303 0.074748 -0.9811832562505969 -0.11349806317207782 0.15619733451522957
-0.0036 0.026358 0.076049 -0.14850282603566944 -0.5813110624547788 0.800015224434583
-0.005046 0.026623 0.075684 -0.6664540482826571 -0.43823554015225136 0.6031489143446436
-0.005477 0.03354 0.077925 -0.9809407540302068 -0.05970248039107284 0.18490768214923564
-0.0036 0.033042 0.079455 -0.1478063935038295 -0.3049131893052613 0.9408406969445385
-0.005046 0.033182 0.079026 -0.6652833082511913 -0.22999422951717122 0.7102821792436814
-0.003628 0.070184 0.038527 -0.1123011348087009 -0.7293073696882062 0.6749068199678739
-0.005471 0.072262 0.038527 -0.9364681887159348 -0.26799089650386604 0.22629231298068986
-0.004983 0.07085 0.038527 -0.4884152680999249 -0.6496203074482212 0.5826182129300087
0.003627 0.070184 0.038527 0.11260555102746021 -0.729235948572149 0.6749332716557096
0.005471 0.072267 0.038527 0.9366443417927355 -0.26761266908363873 0.22601069959978456
0.004983 0.070852 0.038527 0.4890969529354748 -0.6493959542758072 0.5822963723049008
0.005472 0.05 0.075182 0.9812177356708598 0 -0.1929034867620351
0.003602 0.05 0.073666 0.13990909298743948 0 -0.9901643528725077
0.005029 0.05 0.074082 0.6685060366367663 0 -0.7437067157019643
-0.003602 0.05 0.073666 -0.13950304887245005 0 -0.9902216415304661
-0.005472 0.05 0.075177 -0.9811571786006729 0 -0.19321125971424932
-0.00503 0.05 0.074081 -0.6679807490722136 0 -0.7441785530831457
-0.005464 0.065273 0.074276 -0.984070083046535 -0.05390383889858561 -0.16941206510984047
-0.003594 0.064794 0.072835 -0.13979980917339074 -0.2994995911833371 -0.9437987117156379
-0.004992 0.064919 0.073209 -0.6870234107215873 -0.21970748666016407 -0.6926236015513411
-0.0036 0.058871 0.073692 -0.13939628932016676 -0.06979814199818968 -0.9877737058139221
-0.005468 0.059001 0.075191 -0.982424953910748 -0.013000330212581152 -0.18620472966020082
-0.005015 0.058907 0.074095 -0.6762008993477943 -0.05170006876113718 -0.7349009774189499
0.005468 0.059001 0.075196 0.9824845407273765 -0.012899797023290744 -0.1858970749325387
0.003599 0.058871 0.073692 0.13970423170526847 -0.06980211433806542 -0.987729918792367
0.005014 0.058907 0.074096 0.6767205929209686 -0.051701573302813775 -0.7344223488121168
0.003593 0.064794 0.072835 0.14009812199726185 -0.2993959866236988 -0.9437873486153872
0.005464 0.065274 0.074281 0.984128510615935 -0.05380155865373163 -0.16910489903988885
0.004991 0.064919 0.07321 0.6876081069473716 -0.219502587950768 -0.6921081600033099
-0.005464 0.070442 0.071645 -0.9837205550557491 -0.10560220658116001 -0.145403038228226
-0.003594 0.069549 0.070415 -0.13910849561524877 -0.5819355398886646 -0.8012489337666234
-0.004994 0.069781 0.070735 -0.6853903326375368 -0.4278939645981938 -0.5891916895098288
0.003593 0.069549 0.070415 0.13950074633098933 -0.5819031131899834 -0.8012042864543989
0.005464 0.070445 0.071649 0.9837874026829625 -0.10539865037892279 -0.1450981420301869
0.004993 0.069782 0.070735 0.6859047979208421 -0.42760299109338407 -0.5888041186992155
-0.005464 0.074543 0.067544 -0.9837205550557491 -0.145403038228226 -0.10560220658116001
-0.003594 0.073313 0.066651 -0.13910849561524877 -0.8012489337666234 -0.5819355398886646
-0.004994 0.073633 0.066883 -0.6853903326375368 -0.5891916895098288 -0.4278939645981938
0.003593 0.073313 0.06665 0.13950074633098933 -0.8012042864543989 -0.5819031131899834
0.005464 0.074547 0.067547 0.9837874026829625 -0.1450981420301869 -0.10539865037892279
0.004993 0.073634 0.066884 0.6859047979208421 -0.5888041186992155 -0.42760299109338407
-0.005464 0.077175 0.062374 -0.984070083046535 -0.16941206510984047 -0.05390383889858561
-0.003594 0.075733 0.061896 -0.13979980917339074 -0.9437987117156379 -0.2994995911833371
-0.004992 0.076107 0.062021 -0.6870234107215873 -0.6926236015513411 -0.21970748666016407
0.003593 0.075733 0.061896 0.14020938803387425 -0.9437631917800794 -0.2994200483405275
0.005464 0.077179 0.062376 0.984128510615935 -0.16910489903988885 -0.05380155865373163
0.004991 0.076108 0.062021 0.6876081069473716 -0.6921081600033099 -0.219502587950768
-0.005468 0.07809 0.056103 -0.9821977409477937 -0.18739956898148702 -0.012999970100103155
-0.0036 0.07659 0.055974 -0.1393001824833586 -0.9880012942825432 -0.06670008737717169
-0.005015 0.076993 0.056009 -0.6761553760121207 -0.7350602002202465 -0.050004095253078
0.003599 0.07659 0.055974 0.13960813520306434 -0.9879575699649517 -0.06670388694874205
0.005468 0.078095 0.056103 0.9822529203016603 -0.18711008082716415 -0.013000700431604137
0.005014 0.076994 0.05601 0.6767293909956902 -0.7345319014132325 -0.05000217164147261
-0.005472 0.027531 0.038527 -0.9385300662922681 0.2678085793852631 0.2178069775582909
-0.003627 0.02956 0.038527 -0.11310304194722032 0.7432199891704168 0.6594177352784887
-0.004985 0.028916 0.038527 -0.4945990478977492 0.6586987320061614 0.5669989085281516
0.003626 0.02956 0.038527 0.1133991971365264 0.7431947381998802 0.6593953314975795
0.005472 0.027526 0.038527 0.9387156297453538 0.26740445232119703 0.21750362146544633
0.004984 0.028915 0.038527 0.4952340509878037 0.6584452729611672 0.5667389674773594
-0.003594 0.035206 0.072835 -0.13979980917339074 0.2994995911833371 -0.9437987117156379
-0.005464 0.034727 0.074276 -0.984070083046535 0.05390383889858561 -0.16941206510984047
-0.004992 0.035081 0.073209 -0.6870234107215873 0.21970748666016407 -0.6926236015513411
-0.005468 0.040999 0.075191 -0.982424953910748 0.013000330212581152 -0.18620472966020082
-0.0036 0.041129 0.073692 -0.13939628932016676 0.06979814199818968 -0.9877737058139221
-0.005015 0.041093 0.074095 -0.6762008993477943 0.05170006876113718 -0.7349009774189499
0.003599 0.041129 0.073692 0.13970423170526847 0.06980211433806542 -0.987729918792367
0.005468 0.040999 0.075196 0.9824845407273765 0.012899797023290744 -0.1858970749325387
0.005014 0.041093 0.074096 0.6767205929209686 0.051701573302813775 -0.7344223488121168
0.005464 0.034726 0.074281 0.984128510615935 0.05380155865373163 -0.16910489903988885
0.003593 0.035206 0.072835 0.14009812199726185 0.2993959866236988 -0.9437873486153872
0.004991 0.035081 0.07321 0.6876081069473716 0.219502587950768 -0.6921081600033099
-0.003594 0.030451 0.070415 -0.13910849561524877 0.5819355398886646 -0.8012489337666234
-0.005464 0.029558 0.071645 -0.9837205550557491 0.10560220658116001 -0.145403038228226
-0.004994 0.030219 0.070735 -0.6853903326375368 0.4278939645981938 -0.5891916895098288
0.005464 0.029555 0.071649 0.9837874026829625 0.10539865037892279 -0.1450981420301869
0.003593 0.030451 0.070415 0.13950074633098933 0.5819031131899834 -0.8012042864543989
0.004993 0.030218 0.070735 0.6859047979208421 0.42760299109338407 -0.5888041186992155
-0.003594 0.026687 0.066651 -0.13910849561524877 0.8012489337666234 -0.5819355398886646
-0.005464 0.025457 0.067544 -0.9837205550557491 0.145403038228226 -0.10560220658116001
-0.004994 0.026367 0.066883 -0.6853903326375368 0.5891916895098288 -0.4278939645981938
0.005464 0.025453 0.067547 0.9837874026829625 0.1450981420301869 -0.10539865037892279
0.003593 0.026687 0.06665 0.13950074633098933 0.8012042864543989 -0.5819031131899834
0.004993 0.026366 0.066884 0.6859047979208421 0.5888041186992155 -0.42760299109338407
-0.003594 0.024267 0.061896 -0.13979980917339074 0.9437987117156379 -0.2994995911833371
-0.005464 0.022825 0.062374 -0.984070083046535 0.16941206510984047 -0.05390383889858561
-0.004992 0.023893 0.062021 -0.6870234107215873 0.6926236015513411 -0.21970748666016407
0.005464 0.022821 0.062376 0.984128510615935 0.16910489903988885 -0.05380155865373163
0.003593 0.024267 0.061896 0.14011134527495894 0.9437764206707977 -0.29942424536276024
0.004991 0.023892 0.062021 0.6876081069473716 0.6921081600033099 -0.219502587950768
-0.0036 0.02341 0.055974 -0.13919932906085086 0.98799523787443 -0.06699967706233484
-0.005468 0.02191 0.056103 -0.9821573743988373 0.18761095961431817 -0.013000759461546569
-0.005015 0.023007 0.056009 -0.675998293106465 0.7351981436270311 -0.050099873497979126
0.005468 0.021905 0.056103 0.9822161428549628 0.1873030783513893 -0.013000213660267275
0.003599 0.02341 0.055974 0.13960533511982437 0.9879377547627113 -0.06700256055177817
0.005014 0.023006 0.05601 0.676518147842727 0.7347197091205493 -0.0501013439865789
0.005477 0.081957 0.045795 0.9807205659259034 0.19410407040503502 -0.022600473936907735
0.003603 0.083535 0.045916 0.1455059913325422 0.9836405022315362 -0.10620437305509266
0.005045 0.083093 0.045879 0.6652127821864158 0.7422142617840616 -0.08130156222452736
-0.005477 0.081957 0.045795 -0.9807205659259034 0.19410407040503502 -0.022600473936907735
-0.003603 0.083535 0.045916 -0.1455059913325422 0.9836405022315362 -0.10620437305509266
-0.005045 0.083093 0.045879 -0.6652127821864158 0.7422142617840616 -0.08130156222452736
0.003608 0.076495 0.045257 0.1450059482659993 -0.9120374125420095 0.38361573624025747
0.00546 0.078027 0.045676 0.9869303880544795 -0.1565048188575601 0.03840118239060899
0.004995 0.076898 0.045382 0.699036392781937 -0.6608344039346267 0.27321422390275424
-0.003609 0.076495 0.045257 -0.14460111849397736 -0.9121070551753578 0.38360296718042675
-0.00546 0.078022 0.045676 -0.9868802132500845 -0.1567968562545478 0.03849922809821486
-0.004996 0.076897 0.045381 -0.6984922502714745 -0.6612926629986058 0.2734969655680004
0.003604 0.01646 0.045959 0.14520386102199756 -0.9803260672166956 -0.1337035552248008
0.005478 0.018049 0.045808 0.9802562487173734 -0.19541121301711362 -0.030201733025162904
0.005052 0.016909 0.045914 0.6622850126597435 -0.7420832068470415 -0.10339766013742635
-0.003604 0.01646 0.045959 -0.14520386102199756 -0.9803260672166956 -0.1337035552248008
-0.005478 0.018049 0.045808 -0.9802562487173734 -0.19541121301711362 -0.030201733025162904
-0.005052 0.016909 0.045914 -0.6622850126597435 -0.7420832068470415 -0.10339766013742635
0.00546 0.021971 0.045677 0.9866729901965849 0.15809567219020987 0.03849894610577533
0.003608 0.023501 0.04527 0.14440880776178627 0.9165559024492875 0.3729227452518705
0.004995 0.023098 0.045392 0.698223554968947 0.6648224281629274 0.26550895709575395
-0.00546 0.021977 0.045677 -0.9866196931256143 0.1584031617586634 0.03860077047906822
-0.003608 0.023501 0.04527 -0.1440038903176461 0.9166247629524612 0.3729100743017377
-0.004996 0.023099 0.045392 -0.6976794117843328 0.6652803678660121 0.26579215658918687
4 239 96 26 171
3 0 234 237
4 171 26 30 173
4 173 30 33 176
3 0 225 228
4 32 29 102 105
4 176 33 36 179
3 0 216 219
4 35 32 105 108
4 179 36 39 182
4 65 62 135 138
4 38 35 108 111
4 182 39 42 185
4 56 53 126 129
4 41 38 111 114
4 185 42 45 188
4 47 44 117 120
4 44 41 114 117
4 188 45 48 191
3 0 183 186
3 0 195 198
4 191 48 51 194
3 0 174 177
4 50 47 120 123
4 194 51 54 197
3 0 237 240
4 53 50 123 126
4 197 54 57 200
3 0 228 231
3 0 204 207
4 200 57 60 203
3 0 219 222
4 59 56 129 132
4 203 60 63 206
3 0 210 213
4 62 59 132 135
4 206 63 66 209
3 0 201 204
3 0 213 216
4 209 66 69 212
3 0 192 195
4 68 65 138 141
4 212 69 72 215
3 0 186 189
4 74 71 144 147
4 215 72 75 218
4 27 95 168 98
4 77 74 147 150
4 218 75 78 221
4 80 77 150 153
4 221 78 81 224
3 0 231 234
4 83 80 153 156
4 224 81 84 227
3 0 222 225
4 86 83 156 159
4 227 84 87 230
4 71 68 141 144
4 89 86 159 162
4 230 87 90 233
3 0 207 210
4 92 89 162 165
4 233 90 93 236
3 0 198 201
4 95 92 165 168
4 236 93 96 239
3 0 189 192
4 101 99 1 3
3 0 170 174
3 0 180 183
3 0 177 180
4 137 134 14 15
4 125 122 10 11
4 158 155 21 22
4 113 110 6 7
4 146 143 17 18
4 134 131 13 14
4 167 164 24 25
4 122 119 9 10
4 155 152 20 21
4 110 107 5 6
4 143 140 16 17
4 131 128 12 13
4 164 161 23 24
4 119 116 8 9
4 152 149 19 20
4 107 104 4 5
4 140 137 15 16
4 128 125 11 12
4 161 158 22 23
4 116 113 7 8
4 104 101 3 4
4 149 146 18 19
4 99 167 25 1
3 2 3 1
3 2 4 3
3 2 5 4
3 2 6 5
3 2 7 6
3 2 8 7
3 2 9 8
3 2 10 9
3 2 11 10
3 2 12 11
3 2 13 12
3 2 14 13
3 2 15 14
3 2 16 15
3 2 17 16
3 2 18 17
3 2 19 18
3 2 20 19
3 2 21 20
3 2 22 21
3 2 23 22
3 2 24 23
3 2 25 24
3 2 1 25
4 30 26 28 31
4 31 28 27 29
4 33 30 31 34
4 34 31 29 32
4 36 33 34 37
4 37 34 32 35
4 39 36 37 40
4 40 37 35 38
4 42 39 40 43
4 43 40 38 41
4 45 42 43 46
4 46 43 41 44
4 48 45 46 49
4 49 46 44 47
4 51 48 49 52
4 52 49 47 50
4 54 51 52 55
4 55 52 50 53
4 57 54 55 58
4 58 55 53 56
4 60 57 58 61
4 61 58 56 59
4 63 60 61 64
4 64 61 59 62
4 66 63 64 67
4 67 64 62 65
4 69 66 67 70
4 70 67 65 68
4 72 69 70 73
4 73 70 68 71
4 75 72 73 76
4 76 73 71 74
4 78 75 76 79
4 79 76 74 77
4 81 78 79 82
4 82 79 77 80
4 84 81 82 85
4 85 82 80 83
4 87 84 85 88
4 88 85 83 86
4 90 87 88 91
4 91 88 86 89
4 93 90 91 94
4 94 91 89 92
4 96 93 94 97
4 97 94 92 95
4 26 96 97 28
4 28 97 95 27
4 102 98 100 103
4 103 100 99 101
4 105 102 103 106
4 106 103 101 104
4 108 105 106 109
4 109 106 104 107
4 111 108 109 112
4 112 109 107 110
4 114 111 112 115
4 115 112 110 113
4 117 114 115 118
4 118 115 113 116
4 120 117 118 121
4 121 118 116 119
4 123 120 121 124
4 124 121 119 122
4 126 123 124 127
4 127 124 122 125
4 129 126 127 130
4 130 127 125 128
4 132 129 130 133
4 133 130 128 131
4 135 132 133 136
4 136 133 131 134
4 138 135 136 139
4 139 136 134 137
4 141 138 139 142
4 142 139 137 140
4 144 141 142 145
4 145 142 140 143
4 147 144 145 148
4 148 145 143 146
4 150 147 148 151
4 151 148 146 149
4 153 150 151 154
4 154 151 149 152
4 156 153 154 157
4 157 154 152 155
4 159 156 157 160
4 160 157 155 158
4 162 159 160 163
4 163 160 158 161
4 165 162 163 166
4 166 163 161 164
4 168 165 166 169
4 169 166 164 167
4 98 168 169 100
4 100 169 167 99
4 29 27 98 102
4 171 173 175 172
4 172 175 174 170
4 173 176 178 175
4 175 178 177 174
4 176 179 181 178
4 178 181 180 177
4 179 182 184 181
4 181 184 183 180
4 182 185 187 184
4 184 187 186 183
4 185 188 190 187
4 187 190 189 186
4 188 191 193 190
4 190 193 192 189
4 191 194 196 193
4 193 196 195 192
4 194 197 199 196
4 196 199 198 195
4 197 200 202 199
4 199 202 201 198
4 200 203 205 202
4 202 205 204 201
4 203 206 208 205
4 205 208 207 204
4 206 209 211 208
4 208 211 210 207
4 209 212 214 211
4 211 214 213 210
4 212 215 217 214
4 214 217 216 213
4 215 218 220 217
4 217 220 219 216
4 218 221 223 220
4 220 223 222 219
4 221 224 226 223
4 223 226 225 222
4 224 227 229 226
4 226 229 228 225
4 227 230 232 229
4 229 232 231 228
4 230 233 235 232
4 232 235 234 231
4 233 236 238 235
4 235 238 237 234
4 236 239 241 238
4 238 241 240 237
4 239 171 172 241
4 241 172 170 240
3 0 240 170
4 245 333 432 425
4 263 372 378 251
4 291 338 350 249
4 254 354 360 257
4 257 360 366 260
4 260 366 372 263
4 266 252 423 426
4 438 443 380 288
4 296 393 338 291
4 303 395 393 296
4 306 401 395 303
4 309 407 401 306
4 312 413 407 309
4 315 437 434 299
4 339 392 390 341
4 347 345 353 351
4 345 357 359 353
4 357 363 365 359
4 363 369 371 365
4 369 375 377 371
4 375 431 428 377
4 390 392 396 386
4 339 341 347 351
4 386 396 402 398
4 398 402 408 404
4 404 408 414 410
4 410 414 420 416
4 416 420 441 444
4 285 384 440 435
4 279 356 344 282
4 314 417 443 438
4 323 405 411 320
4 275 261 264 272
4 321 315 299 311
4 300 419 413 312
4 276 362 356 279
4 293 342 389 318
4 267 374 368 273
4 330 327 305 302
4 422 429 336 243
4 431 332 335 428
4 290 294 317 297
4 327 324 308 305
4 425 432 374 267
4 317 330 302 297
4 269 348 342 293
4 272 264 252 266
4 329 387 399 326
4 290 248 270 294
4 324 321 311 308
4 249 350 354 254
4 426 423 242 246
4 326 399 405 323
4 282 344 348 269
4 278 258 261 275
4 320 411 417 314
4 273 368 362 276
4 270 248 255 281
4 281 255 258 278
4 444 441 383 381
4 251 378 429 422
4 318 389 387 329
4 437 287 284 434
4 435 440 419 300
4 282 269 271 283
4 283 271 270 281
4 249 254 256 250
4 250 256 255 248
4 279 282 283 280
4 280 283 281 278
4 254 257 259 256
4 256 259 258 255
4 276 279 280 277
4 277 280 278 275
4 257 260 262 259
4 259 262 261 258
4 273 276 277 274
4 274 277 275 272
4 260 263 265 262
4 262 265 264 261
4 267 273 274 268
4 268 274 272 266
4 263 251 253 265
4 265 253 252 264
4 248 290 292 250
4 250 292 291 249
4 423 252 253 424
4 424 253 251 422
4 426 246 247 427
4 427 247 245 425
4 294 270 271 295
4 295 271 269 293
4 330 317 319 331
4 331 319 318 329
4 297 302 304 298
4 298 304 303 296
4 327 330 331 328
4 328 331 329 326
4 302 305 307 304
4 304 307 306 303
4 324 327 328 325
4 325 328 326 323
4 305 308 310 307
4 307 310 309 306
4 321 324 325 322
4 322 325 323 320
4 308 311 313 310
4 310 313 312 309
4 315 321 322 316
4 316 322 320 314
4 311 299 301 313
4 313 301 300 312
4 296 291 292 298
4 298 292 290 297
4 435 300 301 436
4 436 301 299 434
4 438 288 289 439
4 439 289 287 437
4 293 318 319 295
4 295 319 317 294
4 345 347 349 346
4 346 349 348 344
4 351 353 355 352
4 352 355 354 350
4 357 345 346 358
4 358 346 344 356
4 353 359 361 355
4 355 361 360 354
4 363 357 358 364
4 364 358 356 362
4 359 365 367 361
4 361 367 366 360
4 369 363 364 370
4 370 364 362 368
4 365 371 373 367
4 367 373 372 366
4 375 369 370 376
4 376 370 368 374
4 371 377 379 373
4 373 379 378 372
4 350 338 340 352
4 352 340 339 351
4 429 378 379 430
4 430 379 377 428
4 432 333 334 433
4 433 334 332 431
4 342 348 349 343
4 343 349 347 341
4 387 389 391 388
4 388 391 390 386
4 393 395 397 394
4 394 397 396 392
4 399 387 388 400
4 400 388 386 398
4 395 401 403 397
4 397 403 402 396
4 405 399 400 406
4 406 400 398 404
4 401 407 409 403
4 403 409 408 402
4 411 405 406 412
4 412 406 404 410
4 407 413 415 409
4 409 415 414 408
4 417 411 412 418
4 418 412 410 416
4 413 419 421 415
4 415 421 420 414
4 392 339 340 394
4 394 340 338 393
4 441 420 421 442
4 442 421 419 440
4 444 381 382 445
4 445 382 380 443
4 341 390 391 343
4 343 391 389 342
4 242 423 424 244
4 244 424 422 243
4 266 426 427 268
4 268 427 425 267
4 336 429 430 337
4 337 430 428 335
4 374 432 433 376
4 376 433 431 375
4 285 435 436 286
4 286 436 434 284
4 314 438 439 316
4 316 439 437 315
4 383 441 442 385
4 385 442 440 384
4 416 444 445 418
4 418 445 443 417
